. 
 
http://www.torrenting.com          :     Once & For all ;)


               www . Torrenting . Com 

(((((((((((((= Enjoy No RAR releases =))))))))))))))))))))


...................................NFO:....................................

.Texas.Killing.Fields.2011.Limited.BRRip.XViD.AC3-TA

[img]http://i.imgur.com/C0WPe.jpg[/img]

Plot:
In the Texas bayous, a local homicide detective teams up with a cop from New York City to investigate a series of unsolved murders.
 
http://www.imdb.com/title/tt1389127/

General
Complete name                    : Texas.Killing.Fields.2011.Limited.BRRip.XViD.AC3-TA.avi
Format                           : AVI
Format/Info                      : Audio Video Interleave
File size                        : 1.36 GiB
Duration                         : 1h 44mn
Overall bit rate                 : 1 864 Kbps

Video
ID                               : 0
Format                           : MPEG-4 Visual
Format profile                   : Advanced Simple@L5
Format settings, BVOP            : 2
Format settings, QPel            : No
Format settings, GMC             : No warppoints
Format settings, Matrix          : Default (H.263)
Codec ID                         : XVID
Codec ID/Hint                    : XviD
Duration                         : 1h 44mn
Bit rate                         : 1 470 Kbps
Width                            : 720 pixels
Height                           : 288 pixels
Display aspect ratio             : 2.500
Frame rate                       : 24.000 fps
Color space                      : YUV
Chroma subsampling               : 4:2:0
Bit depth                        : 8 bits
Scan type                        : Progressive
Compression mode                 : Lossy
Bits/(Pixel*Frame)               : 0.295
Stream size                      : 1.07 GiB (79%)
Writing library                  : XviD 63

Audio
ID                               : 1
Format                           : AC-3
Format/Info                      : Audio Coding 3
Mode extension                   : CM (complete main)
Codec ID                         : 2000
Duration                         : 1h 44mn
Bit rate mode                    : Constant
Bit rate                         : 384 Kbps
Channel(s)                       : 6 channels
Channel positions                : Front: L C R, Side: L R, LFE
Sampling rate                    : 48.0 KHz
Bit depth                        : 16 bits
Compression mode                 : Lossy
Stream size                      : 288 MiB (21%)
Alignment                        : Aligned on interleaves
Interleave, duration             : 32 ms (0.77 video frame)

Greets:
All groups (past and present) P2P and Scene

Screens:
[IMG]http://i.imgur.com/yBP8C.png[/IMG]
[IMG]http://i.imgur.com/9y2cR.png[/IMG]
[IMG]http://i.imgur.com/9DE15.png[/IMG]
[IMG]http://i.imgur.com/PVL1h.png[/IMG]
[IMG]http://i.imgur.com/FtU3z.png[/IMG]

Enjoy,
TA-rg
[img]http://imageshack.us/m/221/9655/targ.png[/img]